<svg width="19" height="19" viewBox="0 0 19 19" fill="none" xmlns="http://www.w3.org/2000/svg">
<path d="M8.17464 17.0148C11.7465 17.0771 14.693 14.2318 14.7553 10.6599C14.8177 7.08801 11.9723 4.14159 8.40043 4.07925C4.82854 4.0169 1.88212 6.86222 1.81977 10.4341C1.75743 14.006 4.60275 16.9524 8.17464 17.0148Z" fill="#D3D3D3"/>
<path d="M8.15419 15.608C5.24651 15.5572 2.92489 12.8725 2.97564 9.96484L13.5265 10.149C13.4758 13.0567 11.0619 15.6587 8.15419 15.608Z" fill="#9B9B9B"/>
<path d="M12.2283 7.17277C11.7447 6.61056 11.1477 6.15697 10.4764 5.84178C9.80515 5.52659 9.07482 5.35691 8.33335 5.34389C7.59105 5.33093 6.85439 5.47493 6.17161 5.76647C5.48883 6.05801 4.87535 6.49051 4.37135 7.03563L3.02718 7.01217L2.97564 9.96484C2.92489 12.8725 5.25132 15.2816 8.159 15.3324C10.6213 15.3753 12.7262 13.7136 13.3437 11.4381L13.9501 10.8636C13.9501 10.8636 13.5133 10.4891 13.5217 10.2958C13.5241 10.247 13.5257 10.1981 13.5265 10.149L13.5781 7.19633L12.2283 7.17277Z" fill="#E6E6E6"/>
<path d="M13.5724 7.19623C13.5496 8.4849 13.0559 9.72065 12.1845 10.6703C11.3131 11.6199 10.1242 12.2177 8.84221 12.3509C7.56025 12.4841 6.27387 12.1434 5.22585 11.3932C4.17783 10.643 3.44065 9.53507 3.15344 8.27862C2.86623 7.02216 3.04886 5.70403 3.66685 4.57298C4.28484 3.44194 5.29546 2.57621 6.50797 2.13919C7.72048 1.70216 9.05102 1.72407 10.2485 2.20077C11.446 2.67746 12.4275 3.57598 13.008 4.72676C13.0661 4.72477 13.1243 4.72429 13.1824 4.7253C15.0384 4.7577 16.5193 6.29128 16.4869 8.14724C16.4717 8.9912 16.14 9.79863 15.5574 10.4095C14.9749 11.0204 14.1842 11.3901 13.3419 11.4454C13.4444 11.0687 13.505 10.6818 13.5224 10.2918C14.0314 10.1982 14.4924 9.9317 14.8277 9.53737C15.1629 9.14304 15.3516 8.64506 15.3621 8.12761C15.382 6.98591 14.5381 6.02153 13.4285 5.87052C13.5302 6.29536 13.5804 6.73955 13.5724 7.19623Z" fill="#F4F4F4"/>
<path d="M8.21562 11.7666C8.82789 11.7773 9.43628 11.6672 10.006 11.4428C10.5758 11.2184 11.0958 10.8839 11.5363 10.4585C11.9768 10.0331 12.3292 9.52515 12.5734 8.96357C12.8175 8.40199 12.9487 7.79781 12.9594 7.18553C13.0044 4.6108 10.1992 3.0361 8.36856 3.00415C6.80168 2.9768 3.67953 4.44804 3.63458 7.02277C3.613 8.25932 4.08352 9.45379 4.94263 10.3434C5.80174 11.2331 6.97907 11.745 8.21562 11.7666Z" fill="#7D4533"/>
<path d="M3.64008 7.35254C3.8398 5.61201 5.89481 3.52356 8.35875 3.56657C10.8221 3.60957 12.8019 5.79714 12.9424 7.51717C12.9518 7.40744 12.9575 7.2969 12.9594 7.18554C12.9695 6.55987 12.8536 5.93856 12.6186 5.35863C12.3836 4.7787 12.0342 4.252 11.5914 3.80991C11.1485 3.36783 10.6212 3.0194 10.0408 2.78537C9.46051 2.55135 8.839 2.43653 8.21335 2.44774C7.5877 2.45895 6.97071 2.59597 6.39912 2.85064C5.82754 3.1053 5.31305 3.4724 4.88632 3.93007C4.45959 4.38774 4.12933 4.92662 3.91523 5.5146C3.70112 6.10258 3.60755 6.72764 3.64008 7.35254Z" fill="#9B9B9B"/>
</svg>
